<mxfile host="app.diagrams.net" modified="2021-08-18T08:46:13.713Z" agent="5.0 (Windows NT 10.0; Win64; x64) AppleWebKit/537.36 (KHTML, like Gecko) Chrome/92.0.4515.107 Safari/537.36 Edg/92.0.902.55" etag="YoeQX4HSMz2Lk3LTZzs7" version="14.9.6" type="github">
  <diagram id="jtueWHPOZVn_KmwyGYcw" name="Page-1">
    <mxGraphModel dx="1038" dy="579" grid="1" gridSize="10" guides="1" tooltips="1" connect="1" arrows="1" fold="1" page="1" pageScale="1" pageWidth="850" pageHeight="1100" math="0" shadow="0">
      <root>
        <mxCell id="0" />
        <mxCell id="1" parent="0" />
        <mxCell id="qCoLPKDz-83mXKfFB8Tu-3" style="edgeStyle=orthogonalEdgeStyle;rounded=0;orthogonalLoop=1;jettySize=auto;html=1;entryX=0;entryY=0.5;entryDx=0;entryDy=0;" edge="1" parent="1" source="qCoLPKDz-83mXKfFB8Tu-1" target="qCoLPKDz-83mXKfFB8Tu-2">
          <mxGeometry relative="1" as="geometry" />
        </mxCell>
        <mxCell id="qCoLPKDz-83mXKfFB8Tu-1" value="" style="rounded=1;whiteSpace=wrap;html=1;" vertex="1" parent="1">
          <mxGeometry x="200" y="100" width="120" height="60" as="geometry" />
        </mxCell>
        <mxCell id="qCoLPKDz-83mXKfFB8Tu-2" value="" style="ellipse;whiteSpace=wrap;html=1;" vertex="1" parent="1">
          <mxGeometry x="460" y="140" width="120" height="80" as="geometry" />
        </mxCell>
      </root>
    </mxGraphModel>
  </diagram>
</mxfile>
